<svg width="14" height="14" viewBox="0 0 14 14" fill="none" xmlns="http://www.w3.org/2000/svg">
<path d="M2.30859 7.41406L6.42773 7.42578C6.52148 7.42578 6.55664 7.46094 6.55664 7.55469L6.56836 11.6738C6.56836 12.4414 6.79688 13.0742 7.45898 13.0742C8.01562 13.0742 8.33203 12.5645 8.60156 11.9844L13.0078 2.41016C13.1426 2.12305 13.2188 1.85938 13.2188 1.63086C13.2188 1.13867 12.8379 0.763672 12.3516 0.763672C12.123 0.763672 11.8594 0.839844 11.5664 0.974609L1.99805 5.375C1.43555 5.63281 0.902344 5.95508 0.902344 6.51758C0.902344 7.17383 1.51758 7.41406 2.30859 7.41406ZM3.22266 6.22461C3.16992 6.22461 3.15234 6.16016 3.2168 6.13086L11.5781 2.31055C11.666 2.26953 11.707 2.32227 11.6719 2.4043L7.8457 10.7656C7.81641 10.8242 7.75195 10.8125 7.75195 10.7539L7.78125 6.81055C7.78125 6.37695 7.60547 6.19531 7.16016 6.20117L3.22266 6.22461Z" fill="#FF6B00"/>
</svg>
