<svg width="14" height="12" viewBox="0 0 14 12" fill="none" xmlns="http://www.w3.org/2000/svg">
<path d="M0.333984 6.00346C0.333984 6.2399 0.438097 6.47633 0.611618 6.64522L5.1648 11.0632C5.3522 11.2456 5.56737 11.3334 5.78948 11.3334C6.3031 11.3334 6.66402 10.9821 6.66402 10.5093C6.66402 10.2526 6.55297 10.0499 6.39333 9.88777L4.8247 8.35431L3.06173 6.78032L4.62342 6.86814H12.7581C13.2995 6.86814 13.6673 6.51686 13.6673 6.00346C13.6673 5.49005 13.2995 5.13878 12.7581 5.13878H4.62342L3.06173 5.21984L4.8247 3.6526L6.39333 2.11239C6.55991 1.95026 6.66402 1.7476 6.66402 1.4909C6.66402 1.02478 6.3031 0.666748 5.78948 0.666748C5.56737 0.666748 5.3522 0.754567 5.15092 0.943717L0.611618 5.3617C0.438097 5.52383 0.333984 5.76702 0.333984 6.00346Z" fill="url(#paint0_linear_4_167)"/>
<defs>
<linearGradient id="paint0_linear_4_167" x1="-3.9728" y1="4.11218" x2="2.19353" y2="16.0436" gradientUnits="userSpaceOnUse">
<stop stop-color="#FF8800"/>
<stop offset="1" stop-color="#E63535"/>
</linearGradient>
</defs>
</svg>
