<svg width="15" height="12" viewBox="0 0 15 12" fill="none" xmlns="http://www.w3.org/2000/svg">
<path d="M1.60156 11.418H2.31641C2.77344 11.418 3.125 11.0664 3.125 10.6152V9.66016C4.41992 9.73633 6.20703 9.78906 7.68359 9.78906C9.1543 9.78906 10.9414 9.73633 12.2422 9.66016V10.6152C12.2422 11.0664 12.5938 11.418 13.0449 11.418H13.7656C14.2168 11.418 14.5684 11.0664 14.5684 10.6152V9.02734C14.7676 8.78711 14.8672 8.4707 14.8672 8.08984V7.05859C14.8672 5.99219 14.7031 5.38867 14.1348 4.68555L13.5957 4.01758C13.3789 2.96289 12.9863 1.85547 12.7812 1.42188C12.4473 0.707031 11.7969 0.279297 10.959 0.162109C10.5137 0.103516 9.27734 0.0683594 7.68359 0.0683594C6.08984 0.0683594 4.85352 0.109375 4.4082 0.162109C3.57031 0.267578 2.91406 0.707031 2.58008 1.42188C2.38086 1.85547 1.98828 2.96289 1.77148 4.01758L1.23242 4.68555C0.664062 5.38867 0.494141 5.99219 0.494141 7.05859V8.08984C0.494141 8.4707 0.599609 8.78711 0.792969 9.02734V10.6152C0.792969 11.0664 1.14453 11.418 1.60156 11.418ZM7.68359 8.70508C5.66211 8.70508 3.21289 8.60547 2.25195 8.49414C1.75391 8.43555 1.55469 8.18359 1.55469 7.73828V6.95898C1.55469 6.17969 1.71875 5.79883 2.09961 5.30078L2.76172 4.43359C2.89648 3.70117 3.27148 2.45898 3.51172 1.94922C3.7168 1.52148 4.0918 1.29297 4.58984 1.22852C5.00586 1.17578 6.11914 1.12891 7.68359 1.12891C9.24219 1.12891 10.373 1.18164 10.7656 1.22852C11.2754 1.29297 11.6445 1.52734 11.8555 1.95508C12.0957 2.44727 12.4648 3.68359 12.6055 4.43359L13.2617 5.30078C13.6426 5.79883 13.8066 6.17969 13.8066 6.95898V7.73828C13.8066 8.18359 13.6133 8.43555 13.1152 8.49414C12.1484 8.60547 9.70508 8.70508 7.68359 8.70508ZM3.54688 3.77148C3.48828 4.0293 3.59961 4.16992 3.88086 4.15234C4.68359 4.11133 5.74414 4.05859 7.68359 4.05859C9.62305 4.05859 10.6836 4.11133 11.4805 4.15234C11.7676 4.16992 11.8789 4.0293 11.8145 3.77148C11.6973 3.25586 11.4746 2.57031 11.3223 2.29492C11.1523 1.97852 10.9414 1.85547 10.5664 1.80273C10.1973 1.75 9.24219 1.71484 7.68359 1.71484C6.125 1.71484 5.16992 1.75 4.79492 1.80273C4.41992 1.85547 4.21484 1.97852 4.04492 2.29492C3.89258 2.57031 3.66992 3.25586 3.54688 3.77148ZM3.40039 8.03125C3.98633 8.03125 4.43164 7.58594 4.43164 7C4.43164 6.41406 3.98633 5.96875 3.40039 5.96875C2.80859 5.96875 2.36328 6.41406 2.36328 7C2.36328 7.58594 2.80859 8.03125 3.40039 8.03125ZM11.9668 8.03125C12.5527 8.03125 12.998 7.58594 12.998 7C12.998 6.41406 12.5527 5.96875 11.9668 5.96875C11.375 5.96875 10.9297 6.41406 10.9297 7C10.9297 7.58594 11.375 8.03125 11.9668 8.03125ZM6.07227 7.75H9.29492C9.73438 7.75 10.0449 7.43945 10.0449 7C10.0449 6.56055 9.73438 6.25 9.29492 6.25H6.07227C5.63281 6.25 5.32227 6.56055 5.32227 7C5.32227 7.43945 5.63281 7.75 6.07227 7.75Z" fill="#FF6B00"/>
</svg>
