<svg width="24" height="24" viewBox="0 0 24 24" fill="none" xmlns="http://www.w3.org/2000/svg">
<path d="M22.6175 10.4386C21.8329 10.4386 21.2475 9.86625 21.2475 9.06998V8.18663L21.5091 4.3297L18.6321 7.35303L15.0701 10.9362C14.8085 11.21 14.4722 11.3344 14.1111 11.3344C13.2641 11.3344 12.6539 10.7621 12.6539 9.91602C12.6539 9.53033 12.8033 9.1944 13.0649 8.92068L16.6393 5.34992L19.6783 2.48834L15.7924 2.74961H14.821C14.0363 2.74961 13.4385 2.17729 13.4385 1.38103C13.4385 0.584759 14.0239 0 14.821 0H21.7333C23.1655 0 24 0.833593 24 2.26439V9.06998C24 9.85381 23.4146 10.4386 22.6175 10.4386ZM9.17904 24H2.26674C0.834457 24 0 23.1664 0 21.7356V14.93C0 14.1462 0.59782 13.5614 1.38246 13.5614C2.1671 13.5614 2.75246 14.1337 2.75246 14.93V15.8134L2.49092 19.6703L5.36793 16.647L8.92994 13.0638C9.19149 12.79 9.52776 12.6656 9.9014 12.6656C10.7483 12.6656 11.3586 13.2379 11.3586 14.084C11.3586 14.4697 11.2091 14.818 10.9351 15.0793L7.36066 18.6501L4.32174 21.5117L8.20758 21.2504H9.17904C9.97613 21.2504 10.5615 21.8227 10.5615 22.619C10.5615 23.4152 9.97613 24 9.17904 24Z" fill="white"/>
</svg>
