<svg width="13" height="13" viewBox="0 0 13 13" fill="none" xmlns="http://www.w3.org/2000/svg">
<path d="M6.5 12.8984C9.85742 12.8984 12.623 10.1328 12.623 6.77539C12.623 3.41797 9.85156 0.646484 6.5 0.646484C3.14258 0.646484 0.376953 3.41797 0.376953 6.77539C0.376953 10.1328 3.14258 12.8984 6.5 12.8984ZM6.5 11.5215C3.86914 11.5215 1.75977 9.40625 1.75977 6.77539C1.75977 4.14453 3.86328 2.02344 6.5 2.02344C9.13086 2.02344 11.2461 4.14453 11.252 6.77539C11.252 9.40625 9.13086 11.5215 6.5 11.5215ZM4.29688 9.82812C4.4375 9.93945 4.60742 9.89844 4.82422 9.74609L6.5 8.51562L8.18164 9.74609C8.39258 9.89844 8.5625 9.93359 8.70898 9.82812C8.84375 9.72266 8.87305 9.54688 8.78516 9.30078L8.12891 7.33203L9.81641 6.125C10.0332 5.9668 10.1152 5.80859 10.0566 5.64453C10.0039 5.48047 9.8457 5.39844 9.58203 5.39844L7.50781 5.41602L6.875 3.42969C6.79883 3.18359 6.67578 3.06055 6.5 3.06055C6.32422 3.06055 6.20117 3.18945 6.125 3.42969L5.49219 5.41602L3.41797 5.39844C3.16016 5.39844 2.99609 5.48047 2.94922 5.64453C2.89062 5.81445 2.9668 5.9668 3.18359 6.125L4.87109 7.33203L4.21484 9.30078C4.12695 9.54688 4.15625 9.7168 4.29688 9.82812Z" fill="#05A660"/>
</svg>
