<svg width="36" height="36" viewBox="0 0 36 36" fill="none" xmlns="http://www.w3.org/2000/svg">
<path d="M18 6C14.7435 6 14.334 6.015 13.0545 6.072C11.775 6.132 10.9035 6.333 10.14 6.63C9.33914 6.93123 8.61374 7.40374 8.0145 8.0145C7.40411 8.61404 6.93166 9.33936 6.63 10.14C6.333 10.902 6.1305 11.775 6.072 13.05C6.015 14.3325 6 14.7405 6 18.0015C6 21.2595 6.015 21.6675 6.072 22.947C6.132 24.225 6.333 25.0965 6.63 25.86C6.9375 26.649 7.347 27.318 8.0145 27.9855C8.6805 28.653 9.3495 29.064 10.1385 29.37C10.9035 29.667 11.7735 29.8695 13.0515 29.928C14.3325 29.985 14.7405 30 18 30C21.2595 30 21.666 29.985 22.947 29.928C24.2235 29.868 25.098 29.667 25.8615 29.37C26.6618 29.0686 27.3867 28.5961 27.9855 27.9855C28.653 27.318 29.0625 26.649 29.37 25.86C29.6655 25.0965 29.868 24.225 29.928 22.947C29.985 21.6675 30 21.2595 30 18C30 14.7405 29.985 14.3325 29.928 13.0515C29.868 11.775 29.6655 10.902 29.37 10.14C29.0684 9.33934 28.5959 8.61401 27.9855 8.0145C27.3864 7.40351 26.661 6.93097 25.86 6.63C25.095 6.333 24.222 6.1305 22.9455 6.072C21.6645 6.015 21.258 6 17.997 6H18.0015H18ZM16.9245 8.163H18.0015C21.2055 8.163 21.585 8.1735 22.8495 8.232C24.0195 8.2845 24.6555 8.481 25.0785 8.6445C25.638 8.862 26.0385 9.123 26.4585 9.543C26.8785 9.963 27.138 10.362 27.3555 10.923C27.5205 11.3445 27.7155 11.9805 27.768 13.1505C27.8265 14.415 27.8385 14.7945 27.8385 17.997C27.8385 21.1995 27.8265 21.5805 27.768 22.845C27.7155 24.015 27.519 24.6495 27.3555 25.0725C27.1631 25.5935 26.856 26.0647 26.457 26.451C26.037 26.871 25.638 27.1305 25.077 27.348C24.657 27.513 24.021 27.708 22.8495 27.762C21.585 27.819 21.2055 27.8325 18.0015 27.8325C14.7975 27.8325 14.4165 27.819 13.152 27.762C11.982 27.708 11.3475 27.513 10.9245 27.348C10.4032 27.1559 9.93169 26.8494 9.5445 26.451C9.14513 26.0641 8.83758 25.5925 8.6445 25.071C8.481 24.6495 8.2845 24.0135 8.232 22.8435C8.175 21.579 8.163 21.1995 8.163 17.994C8.163 14.79 8.175 14.412 8.232 13.1475C8.286 11.9775 8.481 11.3415 8.646 10.9185C8.8635 10.359 9.1245 9.9585 9.5445 9.5385C9.9645 9.1185 10.3635 8.859 10.9245 8.6415C11.3475 8.4765 11.982 8.2815 13.152 8.2275C14.259 8.1765 14.688 8.1615 16.9245 8.16V8.163ZM24.4065 10.155C24.2174 10.155 24.0301 10.1922 23.8554 10.2646C23.6807 10.337 23.522 10.443 23.3883 10.5768C23.2545 10.7105 23.1485 10.8692 23.0761 11.0439C23.0037 11.2186 22.9665 11.4059 22.9665 11.595C22.9665 11.7841 23.0037 11.9714 23.0761 12.1461C23.1485 12.3208 23.2545 12.4795 23.3883 12.6132C23.522 12.747 23.6807 12.853 23.8554 12.9254C24.0301 12.9978 24.2174 13.035 24.4065 13.035C24.7884 13.035 25.1547 12.8833 25.4247 12.6132C25.6948 12.3432 25.8465 11.9769 25.8465 11.595C25.8465 11.2131 25.6948 10.8468 25.4247 10.5768C25.1547 10.3067 24.7884 10.155 24.4065 10.155ZM18.0015 11.838C17.1841 11.8252 16.3723 11.9752 15.6135 12.2792C14.8546 12.5832 14.1638 13.0351 13.5812 13.6086C12.9987 14.1822 12.536 14.8659 12.2203 15.6199C11.9045 16.3739 11.7419 17.1833 11.7419 18.0007C11.7419 18.8182 11.9045 19.6276 12.2203 20.3816C12.536 21.1356 12.9987 21.8193 13.5812 22.3929C14.1638 22.9664 14.8546 23.4183 15.6135 23.7223C16.3723 24.0263 17.1841 24.1763 18.0015 24.1635C19.6193 24.1383 21.1623 23.4779 22.2975 22.3249C23.4326 21.1719 24.0689 19.6188 24.0689 18.0007C24.0689 16.3827 23.4326 14.8296 22.2975 13.6766C21.1623 12.5236 19.6193 11.8632 18.0015 11.838ZM18.0015 13.9995C19.0625 13.9995 20.08 14.421 20.8303 15.1712C21.5805 15.9215 22.002 16.939 22.002 18C22.002 19.061 21.5805 20.0785 20.8303 20.8288C20.08 21.579 19.0625 22.0005 18.0015 22.0005C16.9405 22.0005 15.923 21.579 15.1727 20.8288C14.4225 20.0785 14.001 19.061 14.001 18C14.001 16.939 14.4225 15.9215 15.1727 15.1712C15.923 14.421 16.9405 13.9995 18.0015 13.9995Z" fill="white"/>
</svg>
