<svg width="36" height="36" viewBox="0 0 36 36" fill="none" xmlns="http://www.w3.org/2000/svg">
<path d="M13.539 28.4999C22.596 28.4999 27.5505 20.9954 27.5505 14.4989C27.5505 14.2889 27.5505 14.0759 27.5415 13.8659C28.5061 13.1677 29.3386 12.3032 30 11.3129C29.099 11.7102 28.1441 11.972 27.1665 12.0899C28.1963 11.4744 28.9676 10.5059 29.337 9.36444C28.3695 9.93763 27.3105 10.34 26.2065 10.5539C25.4643 9.76348 24.4821 9.23982 23.4121 9.06408C22.3421 8.88834 21.2441 9.07032 20.288 9.58185C19.3319 10.0934 18.5712 10.9059 18.1237 11.8935C17.6761 12.8812 17.5668 13.9888 17.8125 15.0449C15.8546 14.9468 13.9392 14.4381 12.1906 13.5521C10.4419 12.666 8.89903 11.4222 7.662 9.90144C7.03401 10.9861 6.84236 12.269 7.12597 13.4898C7.40958 14.7106 8.14718 15.7777 9.189 16.4744C8.40831 16.4479 7.64478 16.2383 6.96 15.8624V15.9299C6.96135 17.0662 7.35496 18.1671 8.07431 19.0466C8.79366 19.9261 9.79462 20.5303 10.908 20.7569C10.4854 20.8734 10.0488 20.9314 9.6105 20.9294C9.30148 20.9304 8.99307 20.9017 8.6895 20.8439C9.00418 21.822 9.61691 22.6772 10.4419 23.2897C11.2668 23.9021 12.2627 24.2412 13.29 24.2594C11.5448 25.6301 9.3891 26.3736 7.17 26.3699C6.77898 26.3716 6.38823 26.349 6 26.3024C8.25227 27.7383 10.8679 28.5008 13.539 28.4999Z" fill="white"/>
</svg>
