<svg width="24" height="20" viewBox="0 0 24 20" fill="none" xmlns="http://www.w3.org/2000/svg">
<path d="M7.539 19.4999C16.596 19.4999 21.5505 11.9954 21.5505 5.49894C21.5505 5.28894 21.5505 5.07594 21.5415 4.86594C22.5061 4.16767 23.3386 3.30317 24 2.31294C23.099 2.71022 22.1441 2.97205 21.1665 3.08994C22.1963 2.4744 22.9676 1.50589 23.337 0.364441C22.3695 0.937627 21.3105 1.34 20.2065 1.55394C19.4643 0.763477 18.4821 0.239818 17.4121 0.0640773C16.3422 -0.111663 15.2441 0.0703233 14.288 0.581847C13.3319 1.09337 12.5712 1.90588 12.1237 2.89353C11.6761 3.88118 11.5668 4.98884 11.8125 6.04494C9.85461 5.94677 7.93922 5.43814 6.19056 4.55206C4.4419 3.66597 2.89903 2.42221 1.662 0.901441C1.03401 1.98607 0.842361 3.26904 1.12597 4.48984C1.40958 5.71064 2.14718 6.77774 3.189 7.47444C2.40831 7.44792 1.64478 7.23828 0.96 6.86244V6.92994C0.961346 8.06616 1.35496 9.16707 2.07431 10.0466C2.79366 10.9261 3.79462 11.5303 4.908 11.7569C4.48539 11.8734 4.04884 11.9314 3.6105 11.9294C3.30148 11.9304 2.99307 11.9017 2.6895 11.8439C3.00418 12.822 3.61691 13.6772 4.44187 14.2897C5.26683 14.9021 6.2627 15.2412 7.29 15.2594C5.54483 16.6301 3.3891 17.3736 1.17 17.3699C0.778981 17.3716 0.388235 17.349 0 17.3024C2.25227 18.7383 4.86795 19.5008 7.539 19.4999V19.4999Z" fill="white"/>
</svg>
