<svg width="20" height="18" viewBox="0 0 20 18" fill="none" xmlns="http://www.w3.org/2000/svg">
<path d="M3.8373 17.8443C4.20654 18.1157 4.67484 18.0224 5.23319 17.6408L9.99722 14.3416L14.7703 17.6408C15.3286 18.0224 15.7879 18.1157 16.1661 17.8443C16.5354 17.5814 16.6164 17.1489 16.3913 16.5382L14.5091 11.2545L19.3181 8.00621C19.8765 7.63304 20.1016 7.23442 19.9576 6.81885C19.8135 6.40327 19.3902 6.19972 18.6968 6.2082L12.798 6.25061L11.0059 0.941408C10.7897 0.322284 10.4655 0 9.99722 0C9.53793 0 9.21372 0.322284 8.99759 0.941408L7.20545 6.25061L1.3067 6.2082C0.613255 6.19972 0.189986 6.40327 0.0458942 6.81885C-0.107203 7.23442 0.126946 7.63304 0.685301 8.00621L5.49436 11.2545L3.61216 16.5382C3.38702 17.1489 3.46807 17.5814 3.8373 17.8443Z" fill="#FFD912"/>
</svg>
